Coordinates
version=1
nRows=12
nColumns=24
inDegrees=yes

Units are S.I. units (second, meters, Newtons, ...)
Angles are in degrees.

endheader
time	pelvis_tilt	pelvis_list	pelvis_rotation	pelvis_tx	pelvis_ty	pelvis_tz	hip_flexion_r	hip_adduction_r	hip_rotation_r	knee_angle_r	ankle_angle_r	subtalar_angle_r	mtp_angle_r	hip_flexion_l	hip_adduction_l	hip_rotation_l	knee_angle_l	ankle_angle_l	subtalar_angle_l	mtp_angle_l	lumbar_extension	lumbar_bending	lumbar_rotation
      4.14000000	     93.38239645	     17.41784759	    -92.97914821	      0.35405586	      0.29262634	      1.01785704	     -4.42769730	    -10.97819670	     -2.50278921	    -44.58869895	    -36.47113328	     -1.74545602	    -25.17324631	    -11.60825325	    -16.68219251	    -10.42588020	    -60.38177291	    -22.89061716	     -0.14557499	     73.45799169	      0.00000000	      0.00000000	      0.00000000
      4.15000000	     93.39836895	     17.42296562	    -92.97647693	      0.35408859	      0.29265917	      1.01789255	     -4.45141762	    -11.01497282	     -2.46304687	    -44.90426734	    -36.48247826	     -1.74545602	    -25.17324631	    -11.60966063	    -16.67995996	    -10.41930417	    -60.39921374	    -22.91693564	     -0.14557499	     73.45799169	      0.00000000	      0.00000000	      0.00000000
      4.16000000	     93.41255497	     17.43094899	    -92.97440501	      0.35411327	      0.29268513	      1.01790888	     -4.47010320	    -11.05841224	     -2.40813762	    -45.22209721	    -36.48984180	     -1.74545602	    -25.17324631	    -11.61230664	    -16.67801783	    -10.41179611	    -60.42141988	    -22.94383624	     -0.14557499	     73.45799169	      0.00000000	      0.00000000	      0.00000000
      4.17000000	     93.42431412	     17.44164661	    -92.97273522	      0.35413214	      0.29270771	      1.01791082	     -4.48468548	    -11.10961137	     -2.33923901	    -45.54132363	    -36.49252775	     -1.74545602	    -25.17324631	    -11.61542731	    -16.67647607	    -10.40237424	    -60.44808982	    -22.96742277	     -0.14557499	     73.45799169	      0.00000000	      0.00000000	      0.00000000
      4.18000000	     93.43364504	     17.45389901	    -92.97143792	      0.35415070	      0.29273419	      1.01791361	     -4.49661650	    -11.16931410	     -2.25734300	    -45.86090794	    -36.48981336	     -1.74545602	    -25.17324631	    -11.61706553	    -16.67594642	    -10.39069991	    -60.47764965	    -22.98482405	     -0.14557499	     73.45799169	      0.00000000	      0.00000000	      0.00000000
      4.19000000	     93.44111303	     17.46663315	    -92.97050625	      0.35417142	      0.29276701	      1.01792565	     -4.50689151	    -11.23746604	     -2.16368154	    -46.17946119	    -36.48122737	     -1.74545602	    -25.17324631	    -11.61583701	    -16.67684992	    -10.37691615	    -60.50845189	    -22.99478119	     -0.14557499	     73.45799169	      0.00000000	      0.00000000	      0.00000000
      4.20000000	     93.44735744	     17.47956478	    -92.96991828	      0.35419320	      0.29280071	      1.01794437	     -4.51573972	    -11.31343549	     -2.05966167	    -46.49545803	    -36.46665914	     -1.74545602	    -25.17324631	    -11.61172065	    -16.67911986	    -10.36136177	    -60.53952447	    -22.99781767	     -0.14557499	     73.45799169	      0.00000000	      0.00000000	      0.00000000
      4.21000000	     93.45266879	     17.49307267	    -92.96969684	      0.35421267	      0.29282747	      1.01795851	     -4.52291425	    -11.39639078	     -1.94652007	    -46.80767308	    -36.44625221	     -1.74545602	    -25.17324631	    -11.60555883	    -16.68232304	    -10.34443161	    -60.57048953	    -22.99599057	     -0.14557499	     73.45799169	      0.00000000	      0.00000000	      0.00000000
      4.22000000	     93.45692735	     17.50736734	    -92.96996136	      0.35422785	      0.29284717	      1.01795864	     -4.52795402	    -11.48557503	     -1.82496712	    -47.11532219	    -36.42015241	     -1.74545602	    -25.17324631	    -11.59798737	    -16.68607908	    -10.32653559	    -60.60099728	    -22.99228176	     -0.14557499	     73.45799169	      0.00000000	      0.00000000	      0.00000000
      4.23000000	     93.45974001	     17.52195709	    -92.97076887	      0.35424007	      0.29286697	      1.01794862	     -4.53015854	    -11.58050602	     -1.69499080	    -47.41773166	    -36.38832178	     -1.74545602	    -25.17324631	    -11.58894273	    -16.69040299	    -10.30802445	    -60.63040487	    -22.98979639	     -0.14557499	     73.45799169	      0.00000000	      0.00000000	      0.00000000
      4.24000000	     93.46060889	     17.53624126	    -92.97191128	      0.35424937	      0.29289095	      1.01793888	     -4.52870689	    -11.68084554	     -1.55601895	    -47.71399972	    -36.35065003	     -1.74545602	    -25.17324631	    -11.57811868	    -16.69556930	    -10.28911981	    -60.65799311	    -22.99103000	     -0.14557499	     73.45799169	      0.00000000	      0.00000000	      0.00000000
      4.25000000	     93.45915719	     17.55033463	    -92.97312272	      0.35425320	      0.29291708	      1.01793400	     -4.52305227	    -11.78584526	     -1.40746665	    -48.00302275	    -36.30736866	     -1.74545602	    -25.17324631	    -11.56547849	    -16.70169535	    -10.26993826	    -60.68324212	    -22.99736512	     -0.14557499	     73.45799169	      0.00000000	      0.00000000	      0.00000000
